<svg xmlns="http://www.w3.org/2000/svg" viewBox="0 0 800 600" role="img" aria-label="Stone path winding through tall cedar forest">
  <defs>
    <linearGradient id="mist" x1="0" y1="0" x2="0" y2="1">
      <stop offset="0" stop-color="#dfe5dc"/><stop offset="1" stop-color="#b9c6b6"/>
    </linearGradient>
  </defs>
  <rect width="800" height="600" fill="url(#mist)"/>
  <g fill="#8fa48b">
    <rect x="90" y="60" width="26" height="540"/><rect x="210" y="20" width="34" height="580"/>
    <rect x="330" y="80" width="22" height="520"/><rect x="470" y="40" width="30" height="560"/>
    <rect x="610" y="70" width="26" height="530"/><rect x="720" y="30" width="34" height="570"/>
  </g>
  <g fill="#5f7a60">
    <rect x="30" y="0" width="44" height="600"/><rect x="150" y="0" width="38" height="600"/>
    <rect x="280" y="10" width="46" height="590"/><rect x="410" y="0" width="40" height="600"/>
    <rect x="545" y="10" width="46" height="590"/><rect x="670" y="0" width="38" height="600"/>
  </g>
  <g fill="#42583f" opacity="0.9">
    <path d="M52 0 L38 180 L66 180 Z"/><path d="M303 10 L289 200 L317 200 Z"/>
    <path d="M568 10 L554 190 L582 190 Z"/>
  </g>
  <path d="M340 600 Q380 480 360 380 Q350 320 400 300 Q460 320 440 400 Q425 490 470 600 Z" fill="#cfc8b8"/>
  <g fill="#b7ad99">
    <ellipse cx="380" cy="560" rx="26" ry="10"/><ellipse cx="415" cy="500" rx="22" ry="9"/>
    <ellipse cx="390" cy="440" rx="24" ry="9"/><ellipse cx="410" cy="380" rx="20" ry="8"/>
    <ellipse cx="398" cy="330" rx="16" ry="7"/>
  </g>
  <rect width="800" height="600" fill="#e7ece5" opacity="0.18"/>
</svg>
