<svg xmlns="http://www.w3.org/2000/svg" viewBox="0 0 800 600" role="img" aria-label="Waves rolling onto a dark sand beach under a wide sky">
  <defs>
    <linearGradient id="seasky" x1="0" y1="0" x2="0" y2="1">
      <stop offset="0" stop-color="#dce7ea"/><stop offset="1" stop-color="#b8cfd6"/>
    </linearGradient>
    <linearGradient id="sea" x1="0" y1="0" x2="0" y2="1">
      <stop offset="0" stop-color="#6f96a3"/><stop offset="1" stop-color="#4e7484"/>
    </linearGradient>
  </defs>
  <rect width="800" height="600" fill="url(#seasky)"/>
  <ellipse cx="180" cy="110" rx="140" ry="30" fill="#eef3f2" opacity="0.8"/>
  <ellipse cx="560" cy="80" rx="170" ry="26" fill="#eef3f2" opacity="0.7"/>
  <path d="M690 235 L735 165 L780 235 Z" fill="#8ba3ad"/>
  <rect x="0" y="250" width="800" height="180" fill="url(#sea)"/>
  <path d="M0 300 Q100 292 200 300 T400 300 T600 300 T800 300 V316 Q700 324 600 316 T400 316 T200 316 T0 316 Z" fill="#87a9b3" opacity="0.7"/>
  <path d="M0 430 Q200 400 400 425 T800 415 V600 H0 Z" fill="#e8ddc8"/>
  <path d="M0 430 Q200 400 400 425 T800 415 V460 Q600 480 400 462 Q200 448 0 470 Z" fill="#f4efe2"/>
  <path d="M0 470 Q200 448 400 462 Q600 480 800 460 V480 Q600 500 400 484 Q200 470 0 492 Z" fill="#dfe9e6" opacity="0.8"/>
  <path d="M40 560 Q60 540 80 560 Q60 566 40 560 Z" fill="#8a7f6d"/>
  <path d="M120 585 Q145 560 170 585 Q145 594 120 585 Z" fill="#8a7f6d"/>
</svg>
