<svg xmlns="http://www.w3.org/2000/svg" viewBox="0 0 800 600" role="img" aria-label="A stone fox statue with a red bib beside a small shrine">
  <defs>
    <linearGradient id="forest" x1="0" y1="0" x2="0" y2="1">
      <stop offset="0" stop-color="#3c4a3e"/><stop offset="1" stop-color="#55654f"/>
    </linearGradient>
  </defs>
  <rect width="800" height="600" fill="url(#forest)"/>
  <g fill="#31402f" opacity="0.8">
    <rect x="70" y="0" width="36" height="600"/><rect x="200" y="0" width="30" height="600"/>
    <rect x="640" y="0" width="34" height="600"/><rect x="730" y="0" width="28" height="600"/>
  </g>
  <path d="M0 520 Q400 480 800 520 V600 H0 Z" fill="#6a755f"/>
  <g fill="#8b3d2a">
    <rect x="470" y="250" width="24" height="240"/><rect x="640" y="250" width="24" height="240"/>
    <rect x="440" y="230" width="256" height="26"/><rect x="456" y="286" width="222" height="18"/>
  </g>
  <path d="M430 230 h276 l-14 -22 h-248 Z" fill="#7a3122"/>
  <g fill="#a7a49a">
    <path d="M240 490 V400 q0 -18 14 -22 l6 -60 q2 -16 16 -16 h30 q14 0 16 16 l6 60 q14 4 14 22 v90 Z"/>
    <path d="M262 302 l14 -34 q4 -9 10 0 l6 16 q4 9 10 0 l6 -16 q6 -9 10 0 l14 34 Z"/>
    <ellipse cx="286" cy="330" rx="34" ry="26"/>
    <path d="M340 430 q40 -6 44 -46 q2 -14 12 -8 q10 8 2 30 q-10 30 -50 40 Z"/>
  </g>
  <path d="M258 350 q28 20 56 0 l-6 34 h-44 Z" fill="#c9502e"/>
  <rect x="222" y="490" width="130" height="34" rx="6" fill="#8f8c82"/>
  <g fill="#3a4738">
    <ellipse cx="276" cy="326" rx="4" ry="6"/><ellipse cx="296" cy="326" rx="4" ry="6"/>
  </g>
  <ellipse cx="560" cy="540" rx="120" ry="16" fill="#5c6852"/>
  <ellipse cx="120" cy="130" rx="90" ry="40" fill="#4a5a47" opacity="0.7"/>
</svg>
