<svg xmlns="http://www.w3.org/2000/svg" viewBox="0 0 800 600" role="img" aria-label="A narrow alley of izakaya lanterns glowing red and gold">
  <rect width="800" height="600" fill="#1d1a22"/>
  <path d="M0 0 H800 V600 H520 L400 260 L280 600 H0 Z" fill="#28222c"/>
  <path d="M280 600 L400 260 L520 600 Z" fill="#332b36"/>
  <g stroke="#161318" stroke-width="6">
    <line x1="120" y1="120" x2="360" y2="230"/>
    <line x1="680" y1="120" x2="440" y2="230"/>
    <line x1="150" y1="300" x2="370" y2="330"/>
    <line x1="650" y1="300" x2="430" y2="330"/>
  </g>
  <g>
    <ellipse cx="170" cy="150" rx="30" ry="44" fill="#d95848"/>
    <ellipse cx="255" cy="185" rx="26" ry="38" fill="#e9a84d"/>
    <ellipse cx="330" cy="220" rx="22" ry="32" fill="#d95848"/>
    <ellipse cx="630" cy="150" rx="30" ry="44" fill="#e9a84d"/>
    <ellipse cx="545" cy="185" rx="26" ry="38" fill="#d95848"/>
    <ellipse cx="470" cy="220" rx="22" ry="32" fill="#e9a84d"/>
    <ellipse cx="195" cy="320" rx="24" ry="34" fill="#e9a84d"/>
    <ellipse cx="290" cy="332" rx="20" ry="29" fill="#d95848"/>
    <ellipse cx="605" cy="320" rx="24" ry="34" fill="#d95848"/>
    <ellipse cx="510" cy="332" rx="20" ry="29" fill="#e9a84d"/>
  </g>
  <g opacity="0.3">
    <ellipse cx="170" cy="150" rx="48" ry="62" fill="#d95848"/>
    <ellipse cx="630" cy="150" rx="48" ry="62" fill="#e9a84d"/>
  </g>
  <g fill="#141118">
    <circle cx="370" cy="470" r="13"/><rect x="360" y="481" width="20" height="44" rx="8"/>
    <circle cx="430" cy="490" r="14"/><rect x="419" y="502" width="22" height="48" rx="8"/>
  </g>
  <path d="M340 600 L400 380 L460 600 Z" fill="#3d3440" opacity="0.6"/>
</svg>
