<svg xmlns="http://www.w3.org/2000/svg" viewBox="0 0 800 600" role="img" aria-label="Crowds crossing a wide intersection lit by neon signs at night">
  <rect width="800" height="600" fill="#232336"/>
  <rect x="0" y="0" width="800" height="380" fill="#1c1c2e"/>
  <g>
    <rect x="60" y="60" width="120" height="220" fill="#2c2c44"/>
    <rect x="220" y="30" width="150" height="250" fill="#26263c"/>
    <rect x="420" y="50" width="130" height="230" fill="#2c2c44"/>
    <rect x="590" y="20" width="150" height="260" fill="#26263c"/>
  </g>
  <g rx="4">
    <rect x="80" y="90" width="34" height="90" fill="#e5606c" rx="4"/>
    <rect x="130" y="140" width="28" height="70" fill="#5ec4c9" rx="4"/>
    <rect x="245" y="60" width="40" height="110" fill="#e9b84d" rx="4"/>
    <rect x="300" y="120" width="30" height="90" fill="#7f7fd1" rx="4"/>
    <rect x="445" y="80" width="34" height="100" fill="#5ec4c9" rx="4"/>
    <rect x="495" y="150" width="26" height="70" fill="#e5606c" rx="4"/>
    <rect x="615" y="50" width="42" height="120" fill="#7f7fd1" rx="4"/>
    <rect x="672" y="130" width="30" height="80" fill="#e9b84d" rx="4"/>
  </g>
  <rect x="0" y="380" width="800" height="220" fill="#2e2e40"/>
  <g fill="#d8d8dc" opacity="0.85">
    <rect x="80" y="420" width="90" height="16" transform="skewX(-30)"/>
    <rect x="230" y="420" width="90" height="16" transform="skewX(-30)"/>
    <rect x="380" y="420" width="90" height="16" transform="skewX(-30)"/>
    <rect x="530" y="420" width="90" height="16" transform="skewX(-30)"/>
    <rect x="680" y="420" width="90" height="16" transform="skewX(-30)"/>
    <rect x="130" y="480" width="110" height="18" transform="skewX(-30)"/>
    <rect x="310" y="480" width="110" height="18" transform="skewX(-30)"/>
    <rect x="490" y="480" width="110" height="18" transform="skewX(-30)"/>
    <rect x="670" y="480" width="110" height="18" transform="skewX(-30)"/>
  </g>
  <g fill="#141420">
    <circle cx="250" cy="470" r="14"/><rect x="240" y="482" width="20" height="46" rx="8"/>
    <circle cx="420" cy="500" r="15"/><rect x="409" y="513" width="22" height="50" rx="8"/>
    <circle cx="560" cy="460" r="13"/><rect x="551" y="471" width="18" height="42" rx="7"/>
    <circle cx="330" cy="530" r="15"/><rect x="319" y="543" width="22" height="50" rx="8"/>
  </g>
  <g opacity="0.35">
    <rect x="80" y="300" width="34" height="60" fill="#e5606c"/>
    <rect x="445" y="300" width="34" height="60" fill="#5ec4c9"/>
    <rect x="615" y="300" width="42" height="60" fill="#7f7fd1"/>
  </g>
</svg>
