<svg xmlns="http://www.w3.org/2000/svg" viewBox="0 0 800 600" role="img" aria-label="Cherry blossoms arching over a narrow stone canal">
  <defs>
    <linearGradient id="sky" x1="0" y1="0" x2="0" y2="1">
      <stop offset="0" stop-color="#f6e7e9"/><stop offset="1" stop-color="#eed7d3"/>
    </linearGradient>
    <linearGradient id="water" x1="0" y1="0" x2="0" y2="1">
      <stop offset="0" stop-color="#b9c8bf"/><stop offset="1" stop-color="#8fa89b"/>
    </linearGradient>
  </defs>
  <rect width="800" height="600" fill="url(#sky)"/>
  <path d="M0 340 Q200 320 420 335 T800 330 V600 H0 Z" fill="#d9c3ba"/>
  <path d="M300 360 Q400 350 500 360 L560 600 H240 Z" fill="url(#water)"/>
  <path d="M240 600 L300 360 Q280 355 250 358 L180 600 Z" fill="#c9b3a6"/>
  <path d="M560 600 L500 360 Q525 355 552 358 L620 600 Z" fill="#c9b3a6"/>
  <g fill="#5d4a44">
    <path d="M120 600 Q110 380 90 300 Q88 280 105 285 Q140 300 150 250" fill="none" stroke="#5d4a44" stroke-width="16" stroke-linecap="round"/>
    <path d="M690 600 Q700 400 720 310 Q724 288 705 295 Q670 310 660 260" fill="none" stroke="#5d4a44" stroke-width="14" stroke-linecap="round"/>
  </g>
  <g fill="#f3c9cf">
    <ellipse cx="130" cy="220" rx="130" ry="80"/>
    <ellipse cx="260" cy="160" rx="110" ry="65"/>
    <ellipse cx="660" cy="200" rx="140" ry="85"/>
    <ellipse cx="540" cy="140" rx="100" ry="60"/>
  </g>
  <g fill="#eab6bf">
    <ellipse cx="180" cy="180" rx="80" ry="45"/>
    <ellipse cx="620" cy="150" rx="90" ry="50"/>
  </g>
  <g fill="#f7dde1">
    <circle cx="350" cy="420" r="5"/><circle cx="410" cy="450" r="4"/><circle cx="380" cy="500" r="6"/>
    <circle cx="450" cy="480" r="4"/><circle cx="330" cy="470" r="4"/><circle cx="470" cy="530" r="5"/>
  </g>
</svg>
