<svg xmlns="http://www.w3.org/2000/svg" viewBox="0 0 800 600" role="img" aria-label="A small stone footbridge crossing a canal between temples">
  <defs>
    <linearGradient id="sky2" x1="0" y1="0" x2="0" y2="1">
      <stop offset="0" stop-color="#e8e6dd"/><stop offset="1" stop-color="#d5d6c8"/>
    </linearGradient>
  </defs>
  <rect width="800" height="600" fill="url(#sky2)"/>
  <path d="M0 300 Q150 260 300 290 T800 280 V600 H0 Z" fill="#a9b3a0"/>
  <path d="M0 380 Q250 350 500 370 T800 365 V600 H0 Z" fill="#7f8f7c"/>
  <rect x="0" y="440" width="800" height="160" fill="#9db4ab"/>
  <path d="M0 440 H800 V450 Q400 465 0 450 Z" fill="#8aa39a"/>
  <path d="M150 440 Q400 330 650 440 L650 470 Q400 365 150 470 Z" fill="#6b655c"/>
  <path d="M170 470 Q400 372 630 470 L630 600 H170 Z" fill="#7d766b"/>
  <path d="M330 512 Q400 470 470 512 L470 600 H330 Z" fill="#9db4ab"/>
  <g stroke="#57524a" stroke-width="8" stroke-linecap="round">
    <line x1="210" y1="452" x2="210" y2="416"/><line x1="310" y1="420" x2="310" y2="386"/>
    <line x1="400" y1="408" x2="400" y2="374"/><line x1="490" y1="420" x2="490" y2="386"/>
    <line x1="590" y1="452" x2="590" y2="416"/>
  </g>
  <path d="M186 420 Q400 320 614 420" fill="none" stroke="#57524a" stroke-width="10" stroke-linecap="round"/>
  <ellipse cx="120" cy="200" rx="110" ry="60" fill="#b4c2a8"/>
  <ellipse cx="700" cy="170" rx="120" ry="70" fill="#b4c2a8"/>
  <ellipse cx="650" cy="220" rx="80" ry="45" fill="#a3b295"/>
</svg>
