<svg xmlns="http://www.w3.org/2000/svg" viewBox="0 0 800 600" role="img" aria-label="Sun setting behind a rocky headland over the sea">
  <defs>
    <linearGradient id="sunset" x1="0" y1="0" x2="0" y2="1">
      <stop offset="0" stop-color="#f0c987"/><stop offset="0.55" stop-color="#e29a6c"/><stop offset="1" stop-color="#b96a5e"/>
    </linearGradient>
    <linearGradient id="dusksea" x1="0" y1="0" x2="0" y2="1">
      <stop offset="0" stop-color="#a96f66"/><stop offset="1" stop-color="#6d4a52"/>
    </linearGradient>
  </defs>
  <rect width="800" height="600" fill="url(#sunset)"/>
  <circle cx="480" cy="300" r="70" fill="#f6e3b5"/>
  <circle cx="480" cy="300" r="100" fill="#f6e3b5" opacity="0.25"/>
  <rect x="0" y="330" width="800" height="270" fill="url(#dusksea)"/>
  <path d="M420 330 h120 v8 h-100 v8 h80 v8 h-110 v8 h90 v8 h-70 Z" fill="#f2cf9b" opacity="0.7"/>
  <path d="M0 600 V420 Q120 380 220 400 Q330 424 400 470 Q470 515 520 600 Z" fill="#3f3038"/>
  <path d="M60 430 Q80 400 96 430 L96 600 H60 Z" fill="#2f242b"/>
  <path d="M0 600 V500 Q200 470 420 520 Q600 560 800 545 V600 Z" fill="#332830"/>
  <ellipse cx="660" cy="140" rx="120" ry="22" fill="#efb787" opacity="0.7"/>
  <ellipse cx="200" cy="180" rx="140" ry="26" fill="#efb787" opacity="0.5"/>
  <g fill="#3f3038"><path d="M600 240 q10 -14 20 0 q10 -14 20 0" stroke="#3f3038" stroke-width="4" fill="none"/><path d="M650 210 q10 -14 20 0 q10 -14 20 0" stroke="#3f3038" stroke-width="4" fill="none"/></g>
</svg>
