<svg xmlns="http://www.w3.org/2000/svg" viewBox="0 0 800 600" role="img" aria-label="A tunnel of closely spaced vermilion torii gates">
  <rect width="800" height="600" fill="#2f3a33"/>
  <path d="M0 600 Q400 560 800 600 V600 H0 Z" fill="#42503f"/>
  <g>
    <g fill="#c9502e">
      <rect x="60" y="60" width="52" height="540"/><rect x="688" y="60" width="52" height="540"/>
      <rect x="20" y="60" width="760" height="46"/><rect x="40" y="130" width="720" height="30"/>
    </g>
    <g fill="#b8432a">
      <rect x="150" y="150" width="42" height="450"/><rect x="608" y="150" width="42" height="450"/>
      <rect x="120" y="150" width="560" height="38"/><rect x="136" y="208" width="528" height="26"/>
    </g>
    <g fill="#c9502e">
      <rect x="225" y="225" width="34" height="375"/><rect x="541" y="225" width="34" height="375"/>
      <rect x="200" y="225" width="400" height="32"/><rect x="212" y="272" width="376" height="22"/>
    </g>
    <g fill="#b8432a">
      <rect x="285" y="285" width="28" height="315"/><rect x="487" y="285" width="28" height="315"/>
      <rect x="266" y="285" width="268" height="26"/><rect x="276" y="324" width="248" height="18"/>
    </g>
    <g fill="#c9502e">
      <rect x="332" y="332" width="22" height="268"/><rect x="446" y="332" width="22" height="268"/>
      <rect x="318" y="332" width="164" height="22"/><rect x="326" y="364" width="148" height="15"/>
    </g>
  </g>
  <rect x="366" y="378" width="68" height="222" fill="#e8e0c9"/>
  <rect x="366" y="378" width="68" height="222" fill="#f4edd8" opacity="0.6"/>
  <path d="M366 600 h68 l24 0 q-58 -30 -116 0 Z" fill="#dcd3b8"/>
</svg>
